<svg width="24" height="24" viewBox="0 0 24 24" fill="none" xmlns="http://www.w3.org/2000/svg">
<path d="M19.4234 1.15505H5.19016C4.069 1.15505 3.15684 2.06721 3.15684 3.18837C3.15684 23.1902 3.14494 22.5573 3.17904 22.6255C3.17904 22.6339 3.21119 22.7035 3.26715 22.7547C3.34658 22.827 3.45316 22.8564 3.55393 22.8386C3.6043 22.8299 3.52026 22.8582 5.27514 22.1898L6.9339 22.8216C7.01159 22.8512 7.09745 22.8512 7.17519 22.8216L8.83365 22.1898L10.4922 22.8216C10.5714 22.8518 10.6574 22.8506 10.7335 22.8216L12.392 22.1898L14.0504 22.8216C14.1281 22.8512 14.2139 22.8512 14.2917 22.8216L15.9499 22.1898C17.7345 22.8697 17.6543 22.8568 17.7746 22.8404C17.9172 22.8208 18.0242 22.7163 18.057 22.5891C18.0733 22.5259 18.0678 23.1357 18.0678 13.6146C18.7308 14.0124 18.7336 14.0328 18.8587 14.0328C18.9865 14.0328 18.9427 14.0387 19.9884 13.4113L20.9434 13.9845C21.1689 14.1197 21.4567 13.9572 21.4567 13.6939V3.18837C21.4567 2.06721 20.5445 1.15505 19.4234 1.15505V1.15505ZM15.8292 21.5104L14.171 22.1422L12.5126 21.5104C12.4349 21.4809 12.349 21.4809 12.2713 21.5104L10.6128 22.1422L8.9543 21.5104C8.87657 21.4809 8.79074 21.4809 8.71301 21.5104L7.0545 22.1423L5.39578 21.5104C5.31822 21.4809 5.23214 21.4808 5.15453 21.5104L3.83462 22.0132V3.18837C3.83462 2.44091 4.4427 1.83282 5.19016 1.83282H17.9084C17.6172 2.15756 17.4245 2.57943 17.3909 3.04451C17.3894 3.06561 17.39 2.32112 17.39 22.0131L16.0705 21.5104C15.9928 21.4809 15.907 21.4808 15.8292 21.5104V21.5104ZM20.7789 13.0952L20.1629 12.7255C20.0555 12.6611 19.9215 12.6611 19.8142 12.7255L18.8587 13.2987L18.0678 12.8242V3.18837C18.0678 2.82699 18.2086 2.48709 18.4641 2.23102C19.3171 1.37808 20.7789 1.98579 20.7789 3.18837V13.0952Z" fill="#BDBDBD"/>
<path fill-rule="evenodd" clip-rule="evenodd" d="M19.4235 1.15543C19.4756 1.15543 19.5273 1.1574 19.5784 1.16127C20.6275 1.24069 21.4568 2.1197 21.4568 3.18875V13.6943C21.4568 13.9576 21.169 14.1201 20.9435 13.9849L19.9885 13.4117C19.0793 13.9571 18.9937 14.0239 18.9029 14.032C18.8892 14.0332 18.8755 14.0331 18.8588 14.0331C18.7584 14.0331 18.7368 14.02 18.3897 13.8094C18.3409 13.7798 18.2857 13.7462 18.2228 13.7083C18.1756 13.6798 18.1241 13.6487 18.0679 13.615C18.0679 13.6757 18.0679 13.7359 18.0679 13.7958C18.068 22.5321 18.0726 22.563 18.06 22.5828C18.0591 22.5842 18.0582 22.5855 18.0571 22.5895C18.0243 22.7167 17.9173 22.8212 17.7747 22.8408C17.7626 22.8424 17.7526 22.844 17.7425 22.8449C17.6517 22.8528 17.5559 22.802 15.95 22.1902L14.2918 22.822C14.214 22.8516 14.1282 22.8516 14.0505 22.822L12.3921 22.1902L10.7336 22.822C10.6575 22.851 10.5715 22.8522 10.4923 22.822L8.83375 22.1902L7.17529 22.822C7.09755 22.8516 7.01169 22.8516 6.934 22.822L5.27524 22.1901C3.63803 22.8138 3.6014 22.8309 3.56295 22.8375C3.56018 22.838 3.55741 22.8384 3.55403 22.839C3.45326 22.8568 3.34668 22.8274 3.26725 22.7551C3.21129 22.7039 3.17914 22.6342 3.17914 22.6259C3.17797 22.6235 3.17686 22.622 3.17579 22.6205C3.14584 22.5768 3.15694 22.505 3.15694 3.18875C3.15694 2.06758 4.0691 1.15543 5.19026 1.15543H19.4235ZM5.19026 1.0005C3.98353 1.0005 3.00201 1.98202 3.00201 3.18875C3.00201 8.40559 3.0012 12.2188 3.00061 15.0068C3.00007 17.5635 2.99971 19.2581 3.00032 20.3825C3.00097 21.5573 3.00267 22.1109 3.00637 22.375C3.00818 22.5045 3.0105 22.5709 3.01429 22.6075C3.01604 22.6243 3.01942 22.6516 3.03185 22.6794C3.03353 22.6831 3.03525 22.6866 3.03693 22.6898C3.03927 22.6958 3.04175 22.7016 3.04413 22.7068C3.05071 22.7212 3.05933 22.7375 3.06963 22.7546C3.08986 22.7881 3.12075 22.831 3.16265 22.8694C3.27773 22.9741 3.43302 23.0176 3.5806 22.9917C3.58222 22.9914 3.58382 22.9911 3.58543 22.9908C3.59879 22.9886 3.6132 22.9862 3.64716 22.9747C3.67696 22.9646 3.7289 22.9453 3.83035 22.9068C3.9273 22.8701 4.07214 22.8148 4.29087 22.7313C4.52429 22.6422 4.84187 22.521 5.27524 22.3559L6.87885 22.9668C6.99204 23.0099 7.11716 23.0099 7.23037 22.9668L8.83376 22.356L10.4372 22.9668C10.5526 23.0107 10.6778 23.0091 10.7887 22.9668C10.7887 22.9668 10.7888 22.9668 10.7887 22.9668L12.3921 22.356L13.9953 22.9668C14.1085 23.0098 14.2336 23.0099 14.3469 22.9668L15.95 22.356C16.3182 22.4963 16.6049 22.6064 16.8292 22.6925C17.1243 22.8057 17.3113 22.8775 17.4333 22.9221C17.5405 22.9613 17.6091 22.984 17.6607 22.9938C17.7201 23.0052 17.7595 22.9995 17.7874 22.9955C17.7902 22.9951 17.7929 22.9947 17.7955 22.9943C17.9983 22.9664 18.1517 22.8207 18.2034 22.642C18.2041 22.6402 18.2049 22.6385 18.2056 22.6366C18.2108 22.6232 18.2134 22.6114 18.2148 22.6031C18.2189 22.5803 18.2198 22.5473 18.2206 22.5022C18.2224 22.4 18.2232 22.1711 18.2235 21.649C18.2239 21.1409 18.2237 20.3537 18.2235 19.1324C18.2232 17.889 18.2229 16.1958 18.2228 13.8894C18.2517 13.9069 18.2788 13.9233 18.3043 13.9388C18.4386 14.0203 18.5276 14.0743 18.5901 14.1088C18.6423 14.1377 18.6874 14.1596 18.7328 14.1726C18.7819 14.1868 18.8227 14.1881 18.8588 14.1881C18.8607 14.1881 18.8626 14.1881 18.8647 14.1881C18.8944 14.1882 18.9357 14.1883 18.9875 14.1724C19.0356 14.1577 19.0878 14.131 19.1558 14.0925C19.2361 14.0469 19.3562 13.9743 19.5452 13.8599C19.6636 13.7883 19.809 13.7003 19.9885 13.5924L20.8637 14.1177C21.1924 14.3148 21.6117 14.0783 21.6117 13.6943V3.18875C21.6117 1.98202 20.6302 1.0005 19.4235 1.0005H5.19026ZM3.04869 22.7091C3.04907 22.7096 3.0489 22.7094 3.04837 22.7086ZM12.2714 21.5108C12.3491 21.4812 12.435 21.4812 12.5127 21.5108L14.1711 22.1426L15.8293 21.5108C15.9071 21.4812 15.9929 21.4812 16.0706 21.5108L17.3901 22.0135C17.3901 21.9581 17.3901 21.9028 17.3901 21.8477C17.3901 6.80476 17.3897 3.79288 17.3903 3.19307C17.3903 3.19244 17.3903 3.19182 17.3903 3.1912C17.3904 3.05628 17.3906 3.04495 17.3908 3.04495C17.3909 3.04495 17.3907 3.04608 17.3908 3.04495C17.3943 2.99577 17.3999 2.94702 17.4069 2.89887C17.3755 2.89775 17.3407 2.90126 17.3173 2.90953C17.3186 2.90867 17.3199 2.90786 17.3211 2.90709C17.3424 2.89946 17.3763 2.89666 17.407 2.89813C17.4565 2.56057 17.5899 2.24991 17.7825 1.98813C17.8221 1.93436 17.8641 1.88266 17.9085 1.8332H5.19026C4.4428 1.8332 3.83471 2.44129 3.83471 3.18875V22.0135L5.15463 21.5108C5.23224 21.4812 5.31832 21.4812 5.39588 21.5108L7.0546 22.1427L8.71311 21.5108C8.79084 21.4812 8.87666 21.4812 8.9544 21.5108L10.6129 22.1426L12.2714 21.5108ZM10.6129 21.9768L12.2163 21.366C12.3295 21.323 12.4546 21.3229 12.5678 21.366L14.1711 21.9768L15.7742 21.366C15.8875 21.3229 16.0126 21.3229 16.1257 21.366L17.2352 21.7887C17.2352 16.0482 17.2351 12.0653 17.2351 9.30192C17.2351 7.39903 17.2351 6.07447 17.2351 5.1526C17.2351 4.01362 17.2351 3.48927 17.2353 3.24835C17.2354 3.12812 17.2355 3.07801 17.2356 3.05733L17.2357 3.04533L17.2359 3.03989L17.2361 3.0349C17.2362 3.03376 17.2365 3.02987 17.2371 3.02484C17.2663 2.64304 17.3949 2.28894 17.5937 1.98813H5.19026C4.52837 1.98813 3.98964 2.52686 3.98964 3.18875V21.7887L5.0994 21.366C5.09943 21.366 5.09938 21.3661 5.0994 21.366C5.21259 21.3229 5.338 21.3229 5.45103 21.366C5.45104 21.366 5.45102 21.366 5.45103 21.366L7.0546 21.9769L8.65795 21.366C8.77117 21.323 8.89627 21.3229 9.00948 21.366L10.6129 21.9768ZM17.2572 2.96719C17.2613 2.96138 17.2676 2.95377 17.2748 2.94584C17.268 2.95276 17.2625 2.95909 17.2593 2.96365C17.2586 2.96483 17.2579 2.96601 17.2572 2.96719ZM17.2618 3.13079C17.2581 3.12471 17.2539 3.11728 17.2513 3.11239C17.254 3.11785 17.2576 3.12441 17.2618 3.13079C17.2619 3.13091 17.2618 3.13067 17.2618 3.13079ZM20.163 12.7259L20.779 13.0956V3.18875C20.779 1.98617 19.3172 1.37846 18.4642 2.23139C18.2087 2.48746 18.0679 2.82737 18.0679 3.18875V12.8246L18.8588 13.299L19.8143 12.7259C19.9216 12.6615 20.0556 12.6615 20.163 12.7259ZM19.7346 12.593C19.7346 12.593 19.7346 12.593 19.7346 12.593C19.8909 12.4992 20.0863 12.4992 20.2427 12.593L20.6241 12.8219V3.18875C20.6241 2.12411 19.329 1.58567 18.5738 2.34095C18.3472 2.568 18.2229 2.86852 18.2229 3.18875V12.7368L18.8588 13.1184L19.7346 12.593Z" fill="#BDBDBD"/>
<path d="M10.6128 9.62747C10.2391 9.62747 9.93499 9.32341 9.93499 8.9497C9.93499 8.76255 9.78325 8.61082 9.5961 8.61082C9.40895 8.61082 9.25722 8.76255 9.25722 8.9497C9.25722 9.5802 9.68989 10.1115 10.2739 10.2623V10.6441C10.2739 10.8313 10.4256 10.983 10.6128 10.983C10.7999 10.983 10.9516 10.8313 10.9516 10.6441V10.2623C11.5356 10.1115 11.9683 9.58016 11.9683 8.9497C11.9683 8.20225 11.3602 7.59416 10.6128 7.59416C10.2391 7.59416 9.93499 7.29009 9.93499 6.91639C9.93499 6.54268 10.2391 6.23861 10.6128 6.23861C10.9865 6.23861 11.2905 6.54268 11.2905 6.91639C11.2905 7.10354 11.4423 7.25527 11.6294 7.25527C11.8166 7.25527 11.9683 7.10354 11.9683 6.91639C11.9683 6.28589 11.5356 5.7546 10.9516 5.60375V5.22195C10.9516 5.0348 10.7999 4.88307 10.6128 4.88307C10.4256 4.88307 10.2739 5.0348 10.2739 5.22195V5.60375C9.68989 5.7546 9.25722 6.28593 9.25722 6.91639C9.25722 7.66384 9.86531 8.27193 10.6128 8.27193C10.9865 8.27193 11.2905 8.576 11.2905 8.9497C11.2905 9.32341 10.9865 9.62747 10.6128 9.62747Z" fill="#BDBDBD"/>
<path fill-rule="evenodd" clip-rule="evenodd" d="M10.09 8.94936C10.09 9.2375 10.3247 9.47221 10.6128 9.47221C10.901 9.47221 11.1357 9.23751 11.1357 8.94936C11.1357 8.66122 10.901 8.42652 10.6128 8.42652C9.77982 8.42652 9.10237 7.74907 9.10237 6.91605C9.10237 6.25563 9.52804 5.69346 10.119 5.4885V5.22161C10.119 4.9489 10.3401 4.7278 10.6128 4.7278C10.8856 4.7278 11.1067 4.9489 11.1067 5.22161V5.4885C11.6976 5.69346 12.1233 6.25559 12.1233 6.91605C12.1233 7.18876 11.9022 7.40986 11.6295 7.40986C11.3568 7.40986 11.1357 7.18876 11.1357 6.91605C11.1357 6.6279 10.901 6.3932 10.6128 6.3932C10.3247 6.3932 10.09 6.6279 10.09 6.91605C10.09 7.20419 10.3247 7.43889 10.6128 7.43889C11.4459 7.43889 12.1233 8.11634 12.1233 8.94936C12.1233 9.60978 11.6977 10.1719 11.1067 10.3769V10.6438C11.1067 10.9165 10.8856 11.1376 10.6128 11.1376C10.3401 11.1376 10.119 10.9165 10.119 10.6438V10.3769C9.52804 10.172 9.10237 9.60982 9.10237 8.94936C9.10237 8.67665 9.32347 8.45555 9.59619 8.45555C9.8689 8.45555 10.09 8.67665 10.09 8.94936ZM10.274 10.262C9.68997 10.1111 9.2573 9.57986 9.2573 8.94936C9.2573 8.76221 9.40904 8.61048 9.59619 8.61048C9.78334 8.61048 9.93507 8.76221 9.93507 8.94936C9.93507 9.32307 10.2391 9.62714 10.6128 9.62714C10.9866 9.62714 11.2906 9.32307 11.2906 8.94936C11.2906 8.57566 10.9866 8.27159 10.6128 8.27159C9.86539 8.27159 9.2573 7.6635 9.2573 6.91605C9.2573 6.28559 9.68997 5.75426 10.274 5.60341V5.22161C10.274 5.03446 10.4257 4.88273 10.6128 4.88273C10.8 4.88273 10.9517 5.03446 10.9517 5.22161V5.60341C11.5357 5.75426 11.9684 6.28555 11.9684 6.91605C11.9684 7.1032 11.8167 7.25493 11.6295 7.25493C11.4424 7.25493 11.2906 7.1032 11.2906 6.91605C11.2906 6.54234 10.9866 6.23827 10.6128 6.23827C10.2391 6.23827 9.93507 6.54234 9.93507 6.91605C9.93507 7.28975 10.2391 7.59382 10.6128 7.59382C11.3603 7.59382 11.9684 8.20191 11.9684 8.94936C11.9684 9.57982 11.5357 10.1111 10.9517 10.262V10.6438C10.9517 10.8309 10.8 10.9827 10.6128 10.9827C10.4257 10.9827 10.274 10.8309 10.274 10.6438V10.262Z" fill="#BDBDBD"/>
<path d="M16.0348 16.0664H7.56266C7.37551 16.0664 7.22377 16.2182 7.22377 16.4053C7.22377 16.5925 7.37551 16.7442 7.56266 16.7442H16.0348C16.222 16.7442 16.3737 16.5925 16.3737 16.4053C16.3737 16.2182 16.222 16.0664 16.0348 16.0664Z" fill="#BDBDBD"/>
<path fill-rule="evenodd" clip-rule="evenodd" d="M7.56272 15.9119H16.0349C16.3076 15.9119 16.5287 16.133 16.5287 16.4057C16.5287 16.6784 16.3076 16.8995 16.0349 16.8995H7.56272C7.29001 16.8995 7.06891 16.6784 7.06891 16.4057C7.06891 16.133 7.29001 15.9119 7.56272 15.9119ZM7.56272 16.0668H16.0349C16.222 16.0668 16.3738 16.2186 16.3738 16.4057C16.3738 16.5929 16.222 16.7446 16.0349 16.7446H7.56272C7.37557 16.7446 7.22384 16.5929 7.22384 16.4057C7.22384 16.2186 7.37557 16.0668 7.56272 16.0668Z" fill="#BDBDBD"/>
<path d="M16.0348 14.3723H7.56266C7.37551 14.3723 7.22377 14.5241 7.22377 14.7112C7.22377 14.8984 7.37551 15.0501 7.56266 15.0501H16.0348C16.222 15.0501 16.3737 14.8984 16.3737 14.7112C16.3737 14.5241 16.222 14.3723 16.0348 14.3723Z" fill="#BDBDBD"/>
<path fill-rule="evenodd" clip-rule="evenodd" d="M7.56272 14.2171H16.0349C16.3076 14.2171 16.5287 14.4382 16.5287 14.7109C16.5287 14.9836 16.3076 15.2047 16.0349 15.2047H7.56272C7.29001 15.2047 7.06891 14.9836 7.06891 14.7109C7.06891 14.4382 7.29001 14.2171 7.56272 14.2171ZM7.56272 14.372H16.0349C16.222 14.372 16.3738 14.5237 16.3738 14.7109C16.3738 14.898 16.222 15.0498 16.0349 15.0498H7.56272C7.37557 15.0498 7.22384 14.898 7.22384 14.7109C7.22384 14.5237 7.37557 14.372 7.56272 14.372Z" fill="#BDBDBD"/>
<path d="M7.56266 13.3553H16.0348C16.222 13.3553 16.3737 13.2035 16.3737 13.0164C16.3737 12.8292 16.222 12.6775 16.0348 12.6775H7.56266C7.37551 12.6775 7.22377 12.8292 7.22377 13.0164C7.22377 13.2035 7.37551 13.3553 7.56266 13.3553V13.3553Z" fill="#BDBDBD"/>
<path fill-rule="evenodd" clip-rule="evenodd" d="M16.0349 13.5099H7.56272C7.29001 13.5099 7.06891 13.2888 7.06891 13.016C7.06891 12.7433 7.29001 12.5222 7.56272 12.5222H16.0349C16.3076 12.5222 16.5287 12.7433 16.5287 13.016C16.5287 13.2888 16.3076 13.5099 16.0349 13.5099ZM16.0349 13.3549H7.56272C7.37557 13.3549 7.22384 13.2032 7.22384 13.016C7.22384 12.8289 7.37557 12.6772 7.56272 12.6772H16.0349C16.222 12.6772 16.3738 12.8289 16.3738 13.016C16.3738 13.2032 16.222 13.3549 16.0349 13.3549Z" fill="#BDBDBD"/>
<path d="M13.6626 17.7605H7.56266C7.37551 17.7605 7.22377 17.9122 7.22377 18.0994C7.22377 18.2865 7.37551 18.4383 7.56266 18.4383H13.6626C13.8498 18.4383 14.0015 18.2865 14.0015 18.0994C14.0015 17.9122 13.8498 17.7605 13.6626 17.7605Z" fill="#BDBDBD"/>
<path fill-rule="evenodd" clip-rule="evenodd" d="M7.56272 17.606H13.6627C13.9354 17.606 14.1565 17.8271 14.1565 18.0998C14.1565 18.3725 13.9354 18.5936 13.6627 18.5936H7.56272C7.29001 18.5936 7.06891 18.3725 7.06891 18.0998C7.06891 17.8271 7.29001 17.606 7.56272 17.606ZM7.56272 17.7609H13.6627C13.8498 17.7609 14.0016 17.9126 14.0016 18.0998C14.0016 18.2869 13.8498 18.4387 13.6627 18.4387H7.56272C7.37557 18.4387 7.22384 18.2869 7.22384 18.0998C7.22384 17.9126 7.37557 17.7609 7.56272 17.7609Z" fill="#BDBDBD"/>
<path d="M5.86802 12.6775H5.19025C5.0031 12.6775 4.85136 12.8292 4.85136 13.0164C4.85136 13.2035 5.0031 13.3553 5.19025 13.3553H5.86802C6.05517 13.3553 6.20691 13.2035 6.20691 13.0164C6.20691 12.8292 6.05522 12.6775 5.86802 12.6775Z" fill="#BDBDBD"/>
<path fill-rule="evenodd" clip-rule="evenodd" d="M5.19033 12.5222H5.86811C6.14088 12.5222 6.36192 12.7433 6.36192 13.016C6.36192 13.2888 6.14082 13.5099 5.86811 13.5099H5.19033C4.91762 13.5099 4.69652 13.2888 4.69652 13.016C4.69652 12.7433 4.91762 12.5222 5.19033 12.5222ZM5.19033 12.6772H5.86811C6.0553 12.6772 6.20699 12.8289 6.20699 13.016C6.20699 13.2032 6.05526 13.3549 5.86811 13.3549H5.19033C5.00318 13.3549 4.85145 13.2032 4.85145 13.016C4.85145 12.8289 5.00318 12.6772 5.19033 12.6772Z" fill="#BDBDBD"/>
<path d="M5.86802 14.3723H5.19025C5.0031 14.3723 4.85136 14.5241 4.85136 14.7112C4.85136 14.8984 5.0031 15.0501 5.19025 15.0501H5.86802C6.05517 15.0501 6.20691 14.8984 6.20691 14.7112C6.20691 14.5241 6.05522 14.3723 5.86802 14.3723Z" fill="#BDBDBD"/>
<path fill-rule="evenodd" clip-rule="evenodd" d="M5.19033 14.2171H5.86811C6.14088 14.2171 6.36192 14.4382 6.36192 14.7109C6.36192 14.9836 6.14082 15.2047 5.86811 15.2047H5.19033C4.91762 15.2047 4.69652 14.9836 4.69652 14.7109C4.69652 14.4382 4.91762 14.2171 5.19033 14.2171ZM5.19033 14.372H5.86811C6.0553 14.372 6.20699 14.5237 6.20699 14.7109C6.20699 14.898 6.05526 15.0498 5.86811 15.0498H5.19033C5.00318 15.0498 4.85145 14.898 4.85145 14.7109C4.85145 14.5237 5.00318 14.372 5.19033 14.372Z" fill="#BDBDBD"/>
<path d="M5.86802 16.0664H5.19025C5.0031 16.0664 4.85136 16.2182 4.85136 16.4053C4.85136 16.5925 5.0031 16.7442 5.19025 16.7442H5.86802C6.05517 16.7442 6.20691 16.5925 6.20691 16.4053C6.20691 16.2182 6.05522 16.0664 5.86802 16.0664Z" fill="#BDBDBD"/>
<path fill-rule="evenodd" clip-rule="evenodd" d="M5.19033 15.9119H5.86811C6.14088 15.9119 6.36192 16.133 6.36192 16.4057C6.36192 16.6784 6.14082 16.8995 5.86811 16.8995H5.19033C4.91762 16.8995 4.69652 16.6784 4.69652 16.4057C4.69652 16.133 4.91762 15.9119 5.19033 15.9119ZM5.19033 16.0668H5.86811C6.0553 16.0668 6.20699 16.2186 6.20699 16.4057C6.20699 16.5929 6.05526 16.7446 5.86811 16.7446H5.19033C5.00318 16.7446 4.85145 16.5929 4.85145 16.4057C4.85145 16.2186 5.00318 16.0668 5.19033 16.0668Z" fill="#BDBDBD"/>
<path d="M5.86802 17.7605H5.19025C5.0031 17.7605 4.85136 17.9122 4.85136 18.0994C4.85136 18.2865 5.0031 18.4383 5.19025 18.4383H5.86802C6.05517 18.4383 6.20691 18.2865 6.20691 18.0994C6.20691 17.9122 6.05522 17.7605 5.86802 17.7605Z" fill="#BDBDBD"/>
<path fill-rule="evenodd" clip-rule="evenodd" d="M5.19033 17.606H5.86811C6.14088 17.606 6.36192 17.8271 6.36192 18.0998C6.36192 18.3725 6.14082 18.5936 5.86811 18.5936H5.19033C4.91762 18.5936 4.69652 18.3725 4.69652 18.0998C4.69652 17.8271 4.91762 17.606 5.19033 17.606ZM5.19033 17.7609H5.86811C6.0553 17.7609 6.20699 17.9126 6.20699 18.0998C6.20699 18.2869 6.05526 18.4387 5.86811 18.4387H5.19033C5.00318 18.4387 4.85145 18.2869 4.85145 18.0998C4.85145 17.9126 5.00318 17.7609 5.19033 17.7609Z" fill="#BDBDBD"/>
</svg>
